<?xml version="1.0" encoding="utf-8" standalone="no"?>
<!DOCTYPE svg PUBLIC "-//W3C//DTD SVG 1.1//EN"
  "http://www.w3.org/Graphics/SVG/1.1/DTD/svg11.dtd">
<!-- Created with matplotlib (https://matplotlib.org/) -->
<svg height="248.518125pt" version="1.1" viewBox="0 0 380.482813 248.518125" width="380.482813pt" xmlns="http://www.w3.org/2000/svg" xmlns:xlink="http://www.w3.org/1999/xlink">
 <metadata>
  <rdf:RDF xmlns:cc="http://creativecommons.org/ns#" xmlns:dc="http://purl.org/dc/elements/1.1/" xmlns:rdf="http://www.w3.org/1999/02/22-rdf-syntax-ns#">
   <cc:Work>
    <dc:type rdf:resource="http://purl.org/dc/dcmitype/StillImage"/>
    <dc:date>2020-10-17T14:13:32.064909</dc:date>
    <dc:format>image/svg+xml</dc:format>
    <dc:creator>
     <cc:Agent>
      <dc:title>Matplotlib v3.3.0, https://matplotlib.org/</dc:title>
     </cc:Agent>
    </dc:creator>
   </cc:Work>
  </rdf:RDF>
 </metadata>
 <defs>
  <style type="text/css">*{stroke-linecap:butt;stroke-linejoin:round;}</style>
 </defs>
 <g id="figure_1">
  <g id="patch_1">
   <path d="M -0 248.518125 
L 380.482813 248.518125 
L 380.482813 0 
L -0 0 
z
" style="fill:none;"/>
  </g>
  <g id="axes_1">
   <g id="patch_2">
    <path d="M 38.482813 224.64 
L 373.282813 224.64 
L 373.282813 7.2 
L 38.482813 7.2 
z
" style="fill:#ffffff;"/>
   </g>
   <g id="matplotlib.axis_1">
    <g id="xtick_1">
     <g id="line2d_1">
      <defs>
       <path d="M 0 0 
L 0 3.5 
" id="m7aadd67042" style="stroke:#000000;stroke-width:0.8;"/>
      </defs>
      <g>
       <use style="stroke:#000000;stroke-width:0.8;" x="53.700994" xlink:href="#m7aadd67042" y="224.64"/>
      </g>
     </g>
     <g id="text_1">
      <!-- 0 -->
      <g transform="translate(50.519744 239.238437)scale(0.1 -0.1)">
       <defs>
        <path d="M 31.78125 66.40625 
Q 24.171875 66.40625 20.328125 58.90625 
Q 16.5 51.421875 16.5 36.375 
Q 16.5 21.390625 20.328125 13.890625 
Q 24.171875 6.390625 31.78125 6.390625 
Q 39.453125 6.390625 43.28125 13.890625 
Q 47.125 21.390625 47.125 36.375 
Q 47.125 51.421875 43.28125 58.90625 
Q 39.453125 66.40625 31.78125 66.40625 
z
M 31.78125 74.21875 
Q 44.046875 74.21875 50.515625 64.515625 
Q 56.984375 54.828125 56.984375 36.375 
Q 56.984375 17.96875 50.515625 8.265625 
Q 44.046875 -1.421875 31.78125 -1.421875 
Q 19.53125 -1.421875 13.0625 8.265625 
Q 6.59375 17.96875 6.59375 36.375 
Q 6.59375 54.828125 13.0625 64.515625 
Q 19.53125 74.21875 31.78125 74.21875 
z
" id="DejaVuSans-48"/>
       </defs>
       <use xlink:href="#DejaVuSans-48"/>
      </g>
     </g>
    </g>
    <g id="xtick_2">
     <g id="line2d_2">
      <g>
       <use style="stroke:#000000;stroke-width:0.8;" x="115.188598" xlink:href="#m7aadd67042" y="224.64"/>
      </g>
     </g>
     <g id="text_2">
      <!-- 2 -->
      <g transform="translate(112.007348 239.238437)scale(0.1 -0.1)">
       <defs>
        <path d="M 19.1875 8.296875 
L 53.609375 8.296875 
L 53.609375 0 
L 7.328125 0 
L 7.328125 8.296875 
Q 12.9375 14.109375 22.625 23.890625 
Q 32.328125 33.6875 34.8125 36.53125 
Q 39.546875 41.84375 41.421875 45.53125 
Q 43.3125 49.21875 43.3125 52.78125 
Q 43.3125 58.59375 39.234375 62.25 
Q 35.15625 65.921875 28.609375 65.921875 
Q 23.96875 65.921875 18.8125 64.3125 
Q 13.671875 62.703125 7.8125 59.421875 
L 7.8125 69.390625 
Q 13.765625 71.78125 18.9375 73 
Q 24.125 74.21875 28.421875 74.21875 
Q 39.75 74.21875 46.484375 68.546875 
Q 53.21875 62.890625 53.21875 53.421875 
Q 53.21875 48.921875 51.53125 44.890625 
Q 49.859375 40.875 45.40625 35.40625 
Q 44.1875 33.984375 37.640625 27.21875 
Q 31.109375 20.453125 19.1875 8.296875 
z
" id="DejaVuSans-50"/>
       </defs>
       <use xlink:href="#DejaVuSans-50"/>
      </g>
     </g>
    </g>
    <g id="xtick_3">
     <g id="line2d_3">
      <g>
       <use style="stroke:#000000;stroke-width:0.8;" x="176.676201" xlink:href="#m7aadd67042" y="224.64"/>
      </g>
     </g>
     <g id="text_3">
      <!-- 4 -->
      <g transform="translate(173.494951 239.238437)scale(0.1 -0.1)">
       <defs>
        <path d="M 37.796875 64.3125 
L 12.890625 25.390625 
L 37.796875 25.390625 
z
M 35.203125 72.90625 
L 47.609375 72.90625 
L 47.609375 25.390625 
L 58.015625 25.390625 
L 58.015625 17.1875 
L 47.609375 17.1875 
L 47.609375 0 
L 37.796875 0 
L 37.796875 17.1875 
L 4.890625 17.1875 
L 4.890625 26.703125 
z
" id="DejaVuSans-52"/>
       </defs>
       <use xlink:href="#DejaVuSans-52"/>
      </g>
     </g>
    </g>
    <g id="xtick_4">
     <g id="line2d_4">
      <g>
       <use style="stroke:#000000;stroke-width:0.8;" x="238.163804" xlink:href="#m7aadd67042" y="224.64"/>
      </g>
     </g>
     <g id="text_4">
      <!-- 6 -->
      <g transform="translate(234.982554 239.238437)scale(0.1 -0.1)">
       <defs>
        <path d="M 33.015625 40.375 
Q 26.375 40.375 22.484375 35.828125 
Q 18.609375 31.296875 18.609375 23.390625 
Q 18.609375 15.53125 22.484375 10.953125 
Q 26.375 6.390625 33.015625 6.390625 
Q 39.65625 6.390625 43.53125 10.953125 
Q 47.40625 15.53125 47.40625 23.390625 
Q 47.40625 31.296875 43.53125 35.828125 
Q 39.65625 40.375 33.015625 40.375 
z
M 52.59375 71.296875 
L 52.59375 62.3125 
Q 48.875 64.0625 45.09375 64.984375 
Q 41.3125 65.921875 37.59375 65.921875 
Q 27.828125 65.921875 22.671875 59.328125 
Q 17.53125 52.734375 16.796875 39.40625 
Q 19.671875 43.65625 24.015625 45.921875 
Q 28.375 48.1875 33.59375 48.1875 
Q 44.578125 48.1875 50.953125 41.515625 
Q 57.328125 34.859375 57.328125 23.390625 
Q 57.328125 12.15625 50.6875 5.359375 
Q 44.046875 -1.421875 33.015625 -1.421875 
Q 20.359375 -1.421875 13.671875 8.265625 
Q 6.984375 17.96875 6.984375 36.375 
Q 6.984375 53.65625 15.1875 63.9375 
Q 23.390625 74.21875 37.203125 74.21875 
Q 40.921875 74.21875 44.703125 73.484375 
Q 48.484375 72.75 52.59375 71.296875 
z
" id="DejaVuSans-54"/>
       </defs>
       <use xlink:href="#DejaVuSans-54"/>
      </g>
     </g>
    </g>
    <g id="xtick_5">
     <g id="line2d_5">
      <g>
       <use style="stroke:#000000;stroke-width:0.8;" x="299.651408" xlink:href="#m7aadd67042" y="224.64"/>
      </g>
     </g>
     <g id="text_5">
      <!-- 8 -->
      <g transform="translate(296.470158 239.238437)scale(0.1 -0.1)">
       <defs>
        <path d="M 31.78125 34.625 
Q 24.75 34.625 20.71875 30.859375 
Q 16.703125 27.09375 16.703125 20.515625 
Q 16.703125 13.921875 20.71875 10.15625 
Q 24.75 6.390625 31.78125 6.390625 
Q 38.8125 6.390625 42.859375 10.171875 
Q 46.921875 13.96875 46.921875 20.515625 
Q 46.921875 27.09375 42.890625 30.859375 
Q 38.875 34.625 31.78125 34.625 
z
M 21.921875 38.8125 
Q 15.578125 40.375 12.03125 44.71875 
Q 8.5 49.078125 8.5 55.328125 
Q 8.5 64.0625 14.71875 69.140625 
Q 20.953125 74.21875 31.78125 74.21875 
Q 42.671875 74.21875 48.875 69.140625 
Q 55.078125 64.0625 55.078125 55.328125 
Q 55.078125 49.078125 51.53125 44.71875 
Q 48 40.375 41.703125 38.8125 
Q 48.828125 37.15625 52.796875 32.3125 
Q 56.78125 27.484375 56.78125 20.515625 
Q 56.78125 9.90625 50.3125 4.234375 
Q 43.84375 -1.421875 31.78125 -1.421875 
Q 19.734375 -1.421875 13.25 4.234375 
Q 6.78125 9.90625 6.78125 20.515625 
Q 6.78125 27.484375 10.78125 32.3125 
Q 14.796875 37.15625 21.921875 38.8125 
z
M 18.3125 54.390625 
Q 18.3125 48.734375 21.84375 45.5625 
Q 25.390625 42.390625 31.78125 42.390625 
Q 38.140625 42.390625 41.71875 45.5625 
Q 45.3125 48.734375 45.3125 54.390625 
Q 45.3125 60.0625 41.71875 63.234375 
Q 38.140625 66.40625 31.78125 66.40625 
Q 25.390625 66.40625 21.84375 63.234375 
Q 18.3125 60.0625 18.3125 54.390625 
z
" id="DejaVuSans-56"/>
       </defs>
       <use xlink:href="#DejaVuSans-56"/>
      </g>
     </g>
    </g>
    <g id="xtick_6">
     <g id="line2d_6">
      <g>
       <use style="stroke:#000000;stroke-width:0.8;" x="361.139011" xlink:href="#m7aadd67042" y="224.64"/>
      </g>
     </g>
     <g id="text_6">
      <!-- 10 -->
      <g transform="translate(354.776511 239.238437)scale(0.1 -0.1)">
       <defs>
        <path d="M 12.40625 8.296875 
L 28.515625 8.296875 
L 28.515625 63.921875 
L 10.984375 60.40625 
L 10.984375 69.390625 
L 28.421875 72.90625 
L 38.28125 72.90625 
L 38.28125 8.296875 
L 54.390625 8.296875 
L 54.390625 0 
L 12.40625 0 
z
" id="DejaVuSans-49"/>
       </defs>
       <use xlink:href="#DejaVuSans-49"/>
       <use x="63.623047" xlink:href="#DejaVuSans-48"/>
      </g>
     </g>
    </g>
   </g>
   <g id="matplotlib.axis_2">
    <g id="ytick_1">
     <g id="line2d_7">
      <defs>
       <path d="M 0 0 
L -3.5 0 
" id="me9bec28b87" style="stroke:#000000;stroke-width:0.8;"/>
      </defs>
      <g>
       <use style="stroke:#000000;stroke-width:0.8;" x="38.482813" xlink:href="#me9bec28b87" y="214.76142"/>
      </g>
     </g>
     <g id="text_7">
      <!-- −1.0 -->
      <g transform="translate(7.2 218.560639)scale(0.1 -0.1)">
       <defs>
        <path d="M 10.59375 35.5 
L 73.1875 35.5 
L 73.1875 27.203125 
L 10.59375 27.203125 
z
" id="DejaVuSans-8722"/>
        <path d="M 10.6875 12.40625 
L 21 12.40625 
L 21 0 
L 10.6875 0 
z
" id="DejaVuSans-46"/>
       </defs>
       <use xlink:href="#DejaVuSans-8722"/>
       <use x="83.789062" xlink:href="#DejaVuSans-49"/>
       <use x="147.412109" xlink:href="#DejaVuSans-46"/>
       <use x="179.199219" xlink:href="#DejaVuSans-48"/>
      </g>
     </g>
    </g>
    <g id="ytick_2">
     <g id="line2d_8">
      <g>
       <use style="stroke:#000000;stroke-width:0.8;" x="38.482813" xlink:href="#me9bec28b87" y="181.815123"/>
      </g>
     </g>
     <g id="text_8">
      <!-- −0.5 -->
      <g transform="translate(7.2 185.614342)scale(0.1 -0.1)">
       <defs>
        <path d="M 10.796875 72.90625 
L 49.515625 72.90625 
L 49.515625 64.59375 
L 19.828125 64.59375 
L 19.828125 46.734375 
Q 21.96875 47.46875 24.109375 47.828125 
Q 26.265625 48.1875 28.421875 48.1875 
Q 40.625 48.1875 47.75 41.5 
Q 54.890625 34.8125 54.890625 23.390625 
Q 54.890625 11.625 47.5625 5.09375 
Q 40.234375 -1.421875 26.90625 -1.421875 
Q 22.3125 -1.421875 17.546875 -0.640625 
Q 12.796875 0.140625 7.71875 1.703125 
L 7.71875 11.625 
Q 12.109375 9.234375 16.796875 8.0625 
Q 21.484375 6.890625 26.703125 6.890625 
Q 35.15625 6.890625 40.078125 11.328125 
Q 45.015625 15.765625 45.015625 23.390625 
Q 45.015625 31 40.078125 35.4375 
Q 35.15625 39.890625 26.703125 39.890625 
Q 22.75 39.890625 18.8125 39.015625 
Q 14.890625 38.140625 10.796875 36.28125 
z
" id="DejaVuSans-53"/>
       </defs>
       <use xlink:href="#DejaVuSans-8722"/>
       <use x="83.789062" xlink:href="#DejaVuSans-48"/>
       <use x="147.412109" xlink:href="#DejaVuSans-46"/>
       <use x="179.199219" xlink:href="#DejaVuSans-53"/>
      </g>
     </g>
    </g>
    <g id="ytick_3">
     <g id="line2d_9">
      <g>
       <use style="stroke:#000000;stroke-width:0.8;" x="38.482813" xlink:href="#me9bec28b87" y="148.868826"/>
      </g>
     </g>
     <g id="text_9">
      <!-- 0.0 -->
      <g transform="translate(15.579688 152.668044)scale(0.1 -0.1)">
       <use xlink:href="#DejaVuSans-48"/>
       <use x="63.623047" xlink:href="#DejaVuSans-46"/>
       <use x="95.410156" xlink:href="#DejaVuSans-48"/>
      </g>
     </g>
    </g>
    <g id="ytick_4">
     <g id="line2d_10">
      <g>
       <use style="stroke:#000000;stroke-width:0.8;" x="38.482813" xlink:href="#me9bec28b87" y="115.922528"/>
      </g>
     </g>
     <g id="text_10">
      <!-- 0.5 -->
      <g transform="translate(15.579688 119.721747)scale(0.1 -0.1)">
       <use xlink:href="#DejaVuSans-48"/>
       <use x="63.623047" xlink:href="#DejaVuSans-46"/>
       <use x="95.410156" xlink:href="#DejaVuSans-53"/>
      </g>
     </g>
    </g>
    <g id="ytick_5">
     <g id="line2d_11">
      <g>
       <use style="stroke:#000000;stroke-width:0.8;" x="38.482813" xlink:href="#me9bec28b87" y="82.976231"/>
      </g>
     </g>
     <g id="text_11">
      <!-- 1.0 -->
      <g transform="translate(15.579688 86.77545)scale(0.1 -0.1)">
       <use xlink:href="#DejaVuSans-49"/>
       <use x="63.623047" xlink:href="#DejaVuSans-46"/>
       <use x="95.410156" xlink:href="#DejaVuSans-48"/>
      </g>
     </g>
    </g>
    <g id="ytick_6">
     <g id="line2d_12">
      <g>
       <use style="stroke:#000000;stroke-width:0.8;" x="38.482813" xlink:href="#me9bec28b87" y="50.029934"/>
      </g>
     </g>
     <g id="text_12">
      <!-- 1.5 -->
      <g transform="translate(15.579688 53.829152)scale(0.1 -0.1)">
       <use xlink:href="#DejaVuSans-49"/>
       <use x="63.623047" xlink:href="#DejaVuSans-46"/>
       <use x="95.410156" xlink:href="#DejaVuSans-53"/>
      </g>
     </g>
    </g>
    <g id="ytick_7">
     <g id="line2d_13">
      <g>
       <use style="stroke:#000000;stroke-width:0.8;" x="38.482813" xlink:href="#me9bec28b87" y="17.083636"/>
      </g>
     </g>
     <g id="text_13">
      <!-- 2.0 -->
      <g transform="translate(15.579688 20.882855)scale(0.1 -0.1)">
       <use xlink:href="#DejaVuSans-50"/>
       <use x="63.623047" xlink:href="#DejaVuSans-46"/>
       <use x="95.410156" xlink:href="#DejaVuSans-48"/>
      </g>
     </g>
    </g>
   </g>
   <g id="line2d_14">
    <path clip-path="url(#p4a7114d5ba)" d="M 53.700994 148.868826 
L 56.775374 142.290543 
L 59.849755 135.777988 
L 62.924135 129.396233 
L 65.998515 123.209041 
L 69.072895 117.278233 
L 72.147275 111.663068 
L 75.221655 106.419651 
L 78.296036 101.600372 
L 81.370416 97.253383 
L 84.444796 93.422119 
L 87.519176 90.14486 
L 90.593556 87.454352 
L 93.667936 85.377477 
L 96.742317 83.934986 
L 99.816697 83.141293 
L 102.891077 83.004327 
L 105.965457 83.525458 
L 109.039837 84.699478 
L 112.114217 86.514658 
L 115.188598 88.952859 
L 118.262978 91.989721 
L 121.337358 95.5949 
L 124.411738 99.732374 
L 127.486118 104.360804 
L 130.560498 109.433943 
L 133.634879 114.901103 
L 136.709259 120.707656 
L 139.783639 126.795587 
L 142.858019 133.104067 
L 145.932399 139.570062 
L 149.006779 146.128968 
L 152.08116 152.715249 
L 155.15554 159.263099 
L 158.22992 165.707092 
L 161.3043 171.982843 
L 164.37868 178.027646 
L 167.45306 183.781104 
L 170.527441 189.18573 
L 173.601821 194.187522 
L 176.676201 198.736506 
L 179.750581 202.787228 
L 182.824961 206.299215 
L 185.899341 209.237376 
L 188.973722 211.572355 
L 192.048102 213.280822 
L 195.122482 214.345704 
L 198.196862 214.756364 
L 201.271242 214.508697 
L 204.345622 213.605178 
L 207.420003 212.054834 
L 210.494383 209.873157 
L 213.568763 207.081945 
L 216.643143 203.709087 
L 219.717523 199.788283 
L 222.791903 195.358708 
L 225.866284 190.464622 
L 228.940664 185.154925 
L 232.015044 179.482669 
L 235.089424 173.504529 
L 238.163804 167.280238 
L 241.238184 160.871986 
L 244.312565 154.343802 
L 247.386945 147.760914 
L 250.461325 141.189096 
L 253.535705 134.694012 
L 256.610085 128.340557 
L 259.684465 122.192214 
L 262.758846 116.310415 
L 265.833226 110.753929 
L 268.907606 105.578274 
L 271.981986 100.835164 
L 275.056366 96.571991 
L 278.130746 92.83135 
L 281.205127 89.650617 
L 284.279507 87.061573 
L 287.353887 85.090087 
L 290.428267 83.755857 
L 293.502647 83.072214 
L 296.577027 83.045989 
L 299.651408 83.677444 
L 302.725788 84.96027 
L 305.800168 86.881648 
L 308.874548 89.422383 
L 311.948928 92.557086 
L 315.023308 96.254438 
L 318.097689 100.477495 
L 321.172069 105.184063 
L 324.246449 110.327114 
L 327.320829 115.855261 
L 330.395209 121.713269 
L 333.469589 127.842607 
L 336.54397 134.182031 
L 339.61835 140.668201 
L 342.69273 147.236309 
L 345.76711 153.820728 
L 348.84149 160.35567 
L 351.91587 166.775839 
L 354.990251 173.017086 
L 358.064631 179.017053 
" style="fill:none;stroke:#ff0000;stroke-linecap:square;stroke-width:1.5;"/>
   </g>
   <g id="line2d_15">
    <path clip-path="url(#p4a7114d5ba)" d="M 53.700994 17.083636 
L 56.775374 17.412825 
L 59.849755 18.397101 
L 62.924135 20.026631 
L 65.998515 22.285132 
L 69.072895 25.150039 
L 72.147275 28.592726 
L 75.221655 32.578795 
L 78.296036 37.068418 
L 81.370416 42.016737 
L 84.444796 47.37431 
L 87.519176 53.087606 
L 90.593556 59.099538 
L 93.667936 65.350039 
L 96.742317 71.776655 
L 99.816697 78.315173 
L 102.891077 84.900263 
L 105.965457 91.466129 
L 109.039837 97.947167 
L 112.114217 104.278619 
L 115.188598 110.397226 
L 118.262978 116.241851 
L 121.337358 121.754097 
L 124.411738 126.878887 
L 127.486118 131.565016 
L 130.560498 135.765663 
L 133.634879 139.438854 
L 136.709259 142.54789 
L 139.783639 145.061706 
L 142.858019 146.955184 
L 145.932399 148.209405 
L 149.006779 148.811839 
L 152.08116 148.756464 
L 155.15554 148.043835 
L 158.22992 146.681072 
L 161.3043 144.681792 
L 164.37868 142.06597 
L 167.45306 138.859743 
L 170.527441 135.095146 
L 173.601821 130.809794 
L 176.676201 126.046505 
L 179.750581 120.852872 
L 182.824961 115.280789 
L 185.899341 109.385928 
L 188.973722 103.227191 
L 192.048102 96.866113 
L 195.122482 90.366252 
L 198.196862 83.792552 
L 201.271242 77.210696 
L 204.345622 70.686447 
L 207.420003 64.284994 
L 210.494383 58.070297 
L 213.568763 52.104452 
L 216.643143 46.447068 
L 219.717523 41.154671 
L 222.791903 36.280141 
L 225.866284 31.872183 
L 228.940664 27.97484 
L 232.015044 24.627052 
L 235.089424 21.862271 
L 238.163804 19.70812 
L 241.238184 18.186122 
L 244.312565 17.311487 
L 247.386945 17.092951 
L 250.461325 17.5327 
L 253.535705 18.626338 
L 256.610085 20.36294 
L 259.684465 22.725153 
L 262.758846 25.689375 
L 265.833226 29.225988 
L 268.907606 33.299655 
L 271.981986 37.869675 
L 275.056366 42.890384 
L 278.130746 48.311618 
L 281.205127 54.07921 
L 284.279507 60.135531 
L 287.353887 66.420068 
L 290.428267 72.870029 
L 293.502647 79.420968 
L 296.577027 86.00743 
L 299.651408 92.563606 
L 302.725788 99.023987 
L 305.800168 105.324025 
L 308.874548 111.400771 
L 311.948928 117.193508 
L 315.023308 122.644357 
L 318.097689 127.698856 
L 321.172069 132.306501 
L 324.246449 136.421254 
L 327.320829 140.002003 
L 330.395209 143.012968 
L 333.469589 145.424066 
L 336.54397 147.211207 
L 339.61835 148.356532 
L 342.69273 148.848599 
L 345.76711 148.682492 
L 348.84149 147.859869 
L 351.91587 146.38895 
L 354.990251 144.284432 
L 358.064631 141.567343 
" style="fill:none;stroke:#0000ff;stroke-linecap:square;stroke-width:1.5;"/>
   </g>
   <g id="patch_3">
    <path d="M 38.482813 224.64 
L 38.482813 7.2 
" style="fill:none;stroke:#000000;stroke-linecap:square;stroke-linejoin:miter;stroke-width:0.8;"/>
   </g>
   <g id="patch_4">
    <path d="M 373.282813 224.64 
L 373.282813 7.2 
" style="fill:none;stroke:#000000;stroke-linecap:square;stroke-linejoin:miter;stroke-width:0.8;"/>
   </g>
   <g id="patch_5">
    <path d="M 38.482813 224.64 
L 373.282813 224.64 
" style="fill:none;stroke:#000000;stroke-linecap:square;stroke-linejoin:miter;stroke-width:0.8;"/>
   </g>
   <g id="patch_6">
    <path d="M 38.482813 7.2 
L 373.282813 7.2 
" style="fill:none;stroke:#000000;stroke-linecap:square;stroke-linejoin:miter;stroke-width:0.8;"/>
   </g>
  </g>
 </g>
 <defs>
  <clipPath id="p4a7114d5ba">
   <rect height="217.44" width="334.8" x="38.482813" y="7.2"/>
  </clipPath>
 </defs>
</svg>
